# xmcd
# 
# Track frame offsets:
#     187
#     27702
#     64937
#     97090
#     145765
#     181257
# 
# Disc length: 3478
# 
# Revision: 1
# Processed by: cddbd v1.5.2PL0 Copyright (c) Steve Scherf et al.
# Submitted via: BonkEnc v1.0.8
# 
DISCID=550d9406
DTITLE=富樫雅彦 and J.J.Spirits - Plays Be Bop vol 1
DYEAR=1991
DGENRE=Contemporary Jazz
TTITLE0=Confirmation
TTITLE1=In A Sentimental Mood
TTITLE2=Oleo
TTITLE3=Stwlla By Starlight
TTITLE4=I Remember Clifford
TTITLE5=A Night In Tunisia - Monk's Hat Blues
EXTD=YEAR: 1991
EXTT0=
EXTT1=
EXTT2=
EXTT3=
EXTT4=
EXTT5=
PLAYORDER=
